<?xml version="1.0" encoding="utf-8"?>
<!-- Generator: Adobe Illustrator 27.5.0, SVG Export Plug-In . SVG Version: 6.00 Build 0)  -->
<svg version="1.1" id="Layer_1" xmlns="http://www.w3.org/2000/svg" xmlns:xlink="http://www.w3.org/1999/xlink" x="0px" y="0px"
	 viewBox="0 0 67.28 33.53" style="enable-background:new 0 0 67.28 33.53;" xml:space="preserve">
<style type="text/css">
	.st0{fill:none;stroke:#000000;stroke-miterlimit:10;}
</style>
<g>
	<path class="st0" d="M50.52,33.03H16.77c-8.98,0-16.27-7.28-16.27-16.27v0C0.5,7.78,7.78,0.5,16.77,0.5h33.75
		c8.98,0,16.27,7.28,16.27,16.27v0C66.78,25.75,59.5,33.03,50.52,33.03z"/>
	<path class="st0" d="M42.54,33.03h-17.8c-8.98,0-16.27-7.28-16.27-16.27v0c0-8.98,7.28-16.27,16.27-16.27h17.8
		c8.98,0,16.27,7.28,16.27,16.27v0C58.81,25.75,51.52,33.03,42.54,33.03z"/>
	<path class="st0" d="M49.91,16.77L49.91,16.77c0,8.98-7.28,16.27-16.27,16.27h0c-8.98,0-16.27-7.28-16.27-16.27v0
		c0-8.98,7.28-16.27,16.27-16.27h0C42.62,0.5,49.91,7.78,49.91,16.77z"/>
	<path class="st0" d="M33.64,0.5L33.64,0.5c8.98,0,16.27,7.28,16.27,16.27v0c0,8.98-7.28,16.27-16.27,16.27h0V0.5z"/>
</g>
</svg>
