<?xml version="1.0" encoding="utf-8"?>
<!-- Generator: Adobe Illustrator 27.6.1, SVG Export Plug-In . SVG Version: 6.00 Build 0)  -->
<svg version="1.1" id="Layer_1" xmlns="http://www.w3.org/2000/svg" xmlns:xlink="http://www.w3.org/1999/xlink" x="0px" y="0px"
	 viewBox="0 0 171.4 33.5" style="enable-background:new 0 0 171.4 33.5;" xml:space="preserve">
<style type="text/css">
	.st0{fill:#FFFFFF;stroke:#000000;stroke-miterlimit:10;}
	.st1{fill:#FFFFFF;stroke:#000000;stroke-width:0.75;stroke-miterlimit:10;}
</style>
<g>
	<path class="st0" d="M50.5,33H16.8c-9,0-16.3-7.3-16.3-16.3l0,0c0-9,7.3-16.3,16.3-16.3h33.8c9,0,16.3,7.3,16.3,16.3l0,0
		C66.8,25.8,59.5,33,50.5,33z"/>
	<path class="st0" d="M42.5,33H24.7c-9,0-16.3-7.3-16.3-16.3l0,0c0-9,7.3-16.3,16.3-16.3h17.8c9,0,16.3,7.3,16.3,16.3l0,0
		C58.8,25.8,51.5,33,42.5,33z"/>
	<path class="st0" d="M49.9,16.8L49.9,16.8c0,9-7.3,16.3-16.3,16.3l0,0c-9,0-16.3-7.3-16.3-16.3l0,0c0-9,7.3-16.3,16.3-16.3l0,0
		C42.6,0.5,49.9,7.8,49.9,16.8z"/>
	<path class="st0" d="M33.6,0.5L33.6,0.5c9,0,16.3,7.3,16.3,16.3l0,0c0,9-7.3,16.3-16.3,16.3l0,0V0.5z"/>
	<g>
		<path d="M87.5,9.1c-0.7-0.5-1.6-0.8-2.7-0.8c-0.4,0-0.9,0-1.3,0.1s-0.8,0.2-1.1,0.4s-0.6,0.5-0.8,0.8c-0.2,0.4-0.3,0.8-0.3,1.3
			c0,0.5,0.1,0.9,0.4,1.2s0.7,0.6,1.2,0.7s1,0.4,1.6,0.5c0.6,0.1,1.2,0.3,1.8,0.4c0.6,0.1,1.2,0.3,1.8,0.5s1.1,0.5,1.6,0.8
			s0.9,0.8,1.2,1.3c0.3,0.5,0.4,1.2,0.4,1.9c0,0.8-0.2,1.6-0.6,2.1c-0.4,0.6-0.9,1.1-1.4,1.5s-1.2,0.6-2,0.8S85.9,23,85.2,23
			c-0.9,0-1.7-0.1-2.5-0.3c-0.8-0.2-1.5-0.6-2.1-1s-1.1-1-1.4-1.7c-0.3-0.7-0.5-1.5-0.5-2.5h2c0,0.7,0.1,1.2,0.4,1.7s0.6,0.9,1,1.2
			s0.9,0.5,1.5,0.7c0.6,0.1,1.1,0.2,1.7,0.2c0.5,0,0.9,0,1.4-0.1s0.9-0.2,1.3-0.5c0.4-0.2,0.7-0.5,0.9-0.9c0.2-0.4,0.3-0.8,0.3-1.4
			c0-0.5-0.1-1-0.4-1.3c-0.3-0.3-0.7-0.6-1.2-0.8c-0.5-0.2-1-0.4-1.6-0.5c-0.6-0.1-1.2-0.3-1.8-0.4c-0.6-0.1-1.2-0.3-1.8-0.5
			c-0.6-0.2-1.1-0.4-1.6-0.7c-0.5-0.3-0.9-0.7-1.2-1.2c-0.3-0.5-0.4-1.1-0.4-1.8c0-0.8,0.2-1.5,0.5-2.1S80.4,8,81,7.6
			c0.5-0.4,1.2-0.7,1.8-0.8c0.7-0.2,1.4-0.3,2.1-0.3c0.8,0,1.6,0.1,2.2,0.3s1.3,0.5,1.8,0.9s0.9,0.9,1.2,1.6
			c0.3,0.6,0.5,1.4,0.5,2.2h-2C88.6,10.4,88.2,9.6,87.5,9.1z"/>
		<path d="M93.7,9.2V6.9h1.9v2.3H93.7z M95.6,11.2v11.4h-1.9V11.2H95.6z"/>
		<path d="M100.2,11.2v1.7h0c0.8-1.3,2.1-1.9,3.7-1.9c0.7,0,1.3,0.1,1.9,0.4s1,0.8,1.2,1.5c0.4-0.6,0.9-1.1,1.5-1.4
			c0.6-0.3,1.3-0.5,2.1-0.5c0.6,0,1.1,0.1,1.6,0.2s0.9,0.3,1.2,0.6c0.3,0.3,0.6,0.6,0.8,1s0.3,0.9,0.3,1.5v8.4h-1.9v-7.5
			c0-0.4,0-0.7-0.1-1c-0.1-0.3-0.2-0.6-0.3-0.8c-0.2-0.2-0.4-0.4-0.7-0.5c-0.3-0.1-0.7-0.2-1.1-0.2c-0.9,0-1.7,0.3-2.2,0.8
			s-0.8,1.2-0.8,2.1v7.1h-1.9v-7.5c0-0.4,0-0.7-0.1-1s-0.2-0.6-0.3-0.8c-0.2-0.2-0.4-0.4-0.7-0.5c-0.3-0.1-0.6-0.2-1.1-0.2
			c-0.5,0-1,0.1-1.4,0.3s-0.7,0.5-0.9,0.8c-0.2,0.3-0.4,0.6-0.5,1s-0.2,0.6-0.2,0.8v7.1h-1.9V11.2H100.2z"/>
		<path d="M119.2,11.2v1.5h0c0.3-0.6,0.8-1.1,1.5-1.4c0.7-0.3,1.4-0.4,2.2-0.4c0.9,0,1.7,0.2,2.3,0.5c0.7,0.3,1.2,0.8,1.6,1.3
			c0.4,0.6,0.8,1.2,1,1.9s0.3,1.5,0.3,2.3c0,0.8-0.1,1.6-0.3,2.3s-0.5,1.4-1,1.9c-0.4,0.5-1,1-1.6,1.3c-0.7,0.3-1.4,0.5-2.3,0.5
			c-0.3,0-0.6,0-0.9-0.1s-0.7-0.1-1-0.3s-0.7-0.3-1-0.5c-0.3-0.2-0.6-0.5-0.8-0.9h0V27h-1.9V11.2H119.2z M126,15.3
			c-0.1-0.5-0.3-1-0.6-1.4s-0.7-0.7-1.1-0.9s-1-0.4-1.6-0.4c-0.6,0-1.2,0.1-1.6,0.4c-0.4,0.2-0.8,0.6-1.1,1s-0.5,0.9-0.6,1.4
			c-0.1,0.5-0.2,1-0.2,1.6c0,0.6,0.1,1.1,0.2,1.6s0.3,1,0.6,1.4s0.7,0.7,1.1,1c0.5,0.2,1,0.4,1.7,0.4c0.7,0,1.2-0.1,1.6-0.4
			c0.4-0.2,0.8-0.6,1.1-1c0.3-0.4,0.5-0.9,0.6-1.4c0.1-0.5,0.2-1.1,0.2-1.6C126.2,16.3,126.1,15.8,126,15.3z"/>
		<path d="M132.4,6.9v15.8h-1.9V6.9H132.4z"/>
		<path d="M143.4,21.9c-0.9,0.6-1.9,1-3.2,1c-0.9,0-1.7-0.1-2.4-0.4s-1.2-0.7-1.7-1.2s-0.8-1.2-1-1.9s-0.4-1.5-0.4-2.4
			c0-0.9,0.1-1.7,0.4-2.4c0.3-0.7,0.6-1.4,1.1-1.9c0.5-0.5,1-0.9,1.7-1.2c0.6-0.3,1.4-0.4,2.1-0.4c1,0,1.9,0.2,2.5,0.6
			s1.2,0.9,1.6,1.6c0.4,0.6,0.7,1.4,0.8,2.1c0.1,0.8,0.2,1.5,0.2,2.2h-8.5c0,0.5,0,1,0.2,1.4c0.1,0.5,0.4,0.9,0.6,1.2
			c0.3,0.4,0.7,0.6,1.1,0.8s1,0.3,1.6,0.3c0.8,0,1.4-0.2,1.9-0.5c0.5-0.4,0.8-0.9,1-1.7h1.9C144.8,20.3,144.2,21.3,143.4,21.9z
			 M142.9,14.6c-0.2-0.4-0.4-0.7-0.7-1c-0.3-0.3-0.6-0.5-1-0.7s-0.8-0.2-1.3-0.2c-0.5,0-0.9,0.1-1.3,0.2s-0.7,0.4-1,0.7
			s-0.5,0.6-0.7,1c-0.2,0.4-0.3,0.8-0.3,1.2h6.6C143.2,15.4,143.1,15,142.9,14.6z"/>
		<path d="M146.2,11.2h2.4l2.7,4l2.9-4h2.2l-3.9,5.2l4.4,6.2h-2.4l-3.2-4.7l-3.2,4.7h-2.3l4.3-6L146.2,11.2z"/>
	</g>
</g>
<circle class="st1" cx="165.8" cy="7.5" r="5.2"/>
<g>
	<path d="M163.8,5h2.2c0.4,0,0.7,0.1,0.9,0.2c0.5,0.2,0.7,0.6,0.7,1.2c0,0.3-0.1,0.5-0.2,0.7c-0.1,0.2-0.3,0.3-0.5,0.5
		c0.2,0.1,0.3,0.2,0.4,0.3c0.1,0.1,0.2,0.3,0.2,0.6l0,0.7c0,0.2,0,0.3,0,0.4c0,0.2,0.1,0.3,0.2,0.3v0.1H167c0,0,0-0.1-0.1-0.2
		s0-0.2,0-0.4l0-0.8c0-0.3-0.1-0.5-0.3-0.6c-0.1-0.1-0.3-0.1-0.6-0.1h-1.5v2.1h-0.7V5z M165.9,7.3c0.3,0,0.5-0.1,0.7-0.2
		s0.3-0.3,0.3-0.7c0-0.3-0.1-0.6-0.4-0.7c-0.1-0.1-0.3-0.1-0.5-0.1h-1.6v1.7H165.9z"/>
</g>
</svg>
