<svg width="99" height="99" viewBox="0 0 99 99" fill="none" xmlns="http://www.w3.org/2000/svg">
<path d="M0 12.375C0 5.54047 5.54047 0 12.375 0H86.625C93.4597 0 99 5.54047 99 12.375V86.625C99 93.4597 93.4597 99 86.625 99H12.375C5.54047 99 0 93.4597 0 86.625V12.375Z" fill="#4353FF"/>
<path d="M67.0473 41.4813C67.0473 41.4813 62.0231 57.2223 61.6518 58.5588C61.5033 57.247 57.8403 28.9578 57.8403 28.9578C49.2768 28.9578 44.7228 35.0463 42.2973 41.4813C42.2973 41.4813 36.184 57.2718 35.689 58.5835C35.6643 57.346 34.7485 41.6298 34.7485 41.6298C34.2288 33.7345 27.0265 28.9578 21.1855 28.9578L28.2145 71.8C37.174 71.7753 42.0003 65.7115 44.5248 59.2518C44.5248 59.2518 49.8956 45.3175 50.1183 44.6988C50.1678 45.2928 53.9793 71.8 53.9793 71.8C62.9636 71.8 67.8146 66.1323 70.4133 59.92L83.0111 28.9578C74.1258 28.9578 69.4481 35.0215 67.0473 41.4813Z" fill="white"/>
</svg>
